<?xml version="1.0" encoding="UTF-8"?>
<svg id="_Слой_1" data-name="Слой_1" xmlns="http://www.w3.org/2000/svg" version="1.1" viewBox="0 0 16 16">
  <!-- Generator: Adobe Illustrator 29.4.0, SVG Export Plug-In . SVG Version: 2.1.0 Build 152)  -->
  <defs>
    <style>
      .st0 {
        fill: #fff;
      }
    </style>
  </defs>
  <path class="st0" d="M6.17,8c-.46,0-.83.37-.83.83s.37.84.83.83c.46-.02.82-.4.8-.86-.02-.44-.37-.79-.8-.8M8.01,11.65c.31,0,1.4-.04,1.98-.61.08-.09.08-.22,0-.31-.08-.08-.22-.09-.3,0,0,0,0,0,0,0-.35.36-1.13.49-1.67.49s-1.31-.12-1.67-.49c-.08-.08-.22-.09-.3,0,0,0,0,0,0,0-.08.08-.09.22,0,.3,0,0,0,0,0,0,.56.56,1.65.61,1.98.61h0ZM9,8.84c0,.46.37.83.83.83s.83-.38.83-.83c-.02-.46-.41-.81-.87-.79-.43.02-.77.36-.79.79h0Z"/>
  <path class="st0" d="M16,8c0,4.42-3.58,8-8,8S0,12.42,0,8,3.58,0,8,0s8,3.58,8,8M12.17,6.84c-.31,0-.6.12-.81.32-.8-.57-1.9-.95-3.12-.99l.53-2.5,1.74.37c.02.46.41.81.87.79.46-.02.81-.41.79-.87-.02-.44-.39-.79-.83-.79-.32,0-.61.18-.74.47l-1.94-.41c-.05-.01-.11,0-.15.03-.05.03-.08.08-.09.13l-.59,2.79c-1.24.04-2.36.41-3.17.99-.21-.2-.5-.32-.81-.32-.64,0-1.16.52-1.16,1.16,0,.46.27.87.69,1.06-.02.11-.03.23-.03.35,0,1.8,2.09,3.26,4.67,3.26s4.67-1.45,4.67-3.26c0-.11-.01-.24-.03-.35.4-.18.69-.59.69-1.07,0-.65-.52-1.16-1.16-1.16"/>
</svg>