<?xml version="1.0" encoding="UTF-8"?>
<svg id="_Слой_1" data-name="Слой_1" xmlns="http://www.w3.org/2000/svg" version="1.1" viewBox="0 0 16 16">
  <!-- Generator: Adobe Illustrator 29.4.0, SVG Export Plug-In . SVG Version: 2.1.0 Build 152)  -->
  <defs>
    <style>
      .st0 {
        fill: #fff;
      }
    </style>
  </defs>
  <path class="st0" d="M16,8c0,4.42-3.58,8-8,8S0,12.42,0,8,3.58,0,8,0s8,3.58,8,8M8.29,5.91c-.78.32-2.33.99-4.67,2.01-.38.15-.58.3-.6.44-.03.24.28.34.69.47l.17.06c.41.13.96.29,1.24.29.26,0,.55-.1.87-.32,2.18-1.47,3.3-2.21,3.37-2.23.05-.01.12-.03.17.02s.04.12.04.14c-.03.13-1.23,1.24-1.85,1.82-.19.18-.33.31-.36.34-.06.06-.12.13-.19.19-.38.37-.66.64.01,1.09.33.22.59.39.85.57.28.19.57.39.94.63.09.06.18.12.27.19.33.24.63.45,1,.41.21-.02.44-.22.55-.82.27-1.42.79-4.49.91-5.75,0-.11,0-.21-.01-.32,0-.08-.05-.16-.11-.22-.09-.06-.2-.1-.31-.09-.3,0-.76.17-2.98,1.09"/>
</svg>